<svg xmlns="http://www.w3.org/2000/svg" fill="none" viewBox="0 0 322 71" height="71" width="322">
<path fill="#1F1F1F" d="M6.83012 37.3502L32.2878 0.868609H4.22226L3.47715 10.5474H4.59481C4.96736 7.44523 5.71247 5.45983 6.83012 4.46714C8.07196 3.59853 10.0589 3.22627 12.9151 3.22627H24.3401L0 38.5911V39.7079H30.7976L32.6604 29.4086H31.5427C31.1702 30.6495 30.5493 31.8904 30.1767 32.8831C29.68 33.9999 29.1832 34.8685 28.5623 35.4889C27.3205 36.7298 25.4577 37.3502 22.974 37.3502H6.70594H6.83012ZM76.9941 40.5765C82.7066 40.5765 87.1772 38.3429 90.5302 34.4962C93.7589 30.6495 95.4975 25.9342 95.4975 20.3503C95.4975 14.7664 93.7589 10.0511 90.5302 6.08027C87.1772 2.10948 82.5824 0.124087 76.8699 0C71.1574 0 66.811 2.10948 63.458 6.08027C60.1051 9.92697 58.3665 14.6423 58.3665 20.3503C58.3665 26.0583 60.1051 30.6495 63.458 34.4962C66.811 38.467 71.2816 40.5765 76.9941 40.5765ZM76.9941 38.467C72.2751 38.3429 69.0463 36.3575 67.4319 32.6349C66.5626 30.8977 65.8175 28.9123 65.445 26.8028C65.0724 24.6933 64.8241 22.4598 64.8241 20.3503C64.8241 18.2408 65.0724 15.8832 65.445 13.7737C65.8175 11.5401 66.4385 9.67879 67.4319 7.94157C68.3012 6.20435 69.5431 4.71531 71.1574 3.72261C72.6477 2.72992 74.6346 2.23357 76.9941 2.10948C81.5889 2.23357 84.8177 4.09487 86.5563 7.94157C88.2948 11.5401 89.1641 15.7591 89.1641 20.3503C89.1641 24.9415 88.2948 29.0364 86.5563 32.6349C85.687 34.3721 84.4451 35.7371 82.8307 36.8539C81.2163 37.9707 79.2294 38.5911 76.9941 38.5911V38.467ZM126.171 32.2626C126.171 33.5035 126.171 34.4962 126.171 35.3648C126.171 36.1093 126.047 36.7298 125.674 37.3502C125.053 38.2188 123.439 38.8393 120.955 38.7152V39.832H138.589C145.419 39.832 150.635 37.7225 154.112 33.9999C157.465 30.2773 159.08 25.8101 159.08 20.3503C159.08 14.8905 158.459 14.1459 157.217 11.2919C155.975 8.43792 154.112 6.20436 151.505 4.46714C149.145 2.97809 146.661 1.98539 143.805 1.61313C141.073 1.36496 138.341 1.24087 135.609 1.24087H120.955V2.23357C122.321 2.23357 123.315 2.23357 124.06 2.48174C124.681 2.72992 125.302 3.10218 125.674 3.59853C126.047 4.46714 126.295 6.32844 126.295 8.6861V32.5108L126.171 32.2626ZM131.511 3.8467C133.374 3.35035 135.361 2.97809 137.348 2.97809C142.315 2.97809 146.165 4.71531 148.772 8.06566C151.38 11.2919 152.746 15.3868 152.746 20.3503C152.746 25.3138 151.505 29.1605 148.897 32.3867C146.289 35.7371 142.563 37.4743 137.72 37.4743C135.733 37.4743 133.622 37.2261 131.635 36.7298V3.8467H131.511ZM195.217 8.31384C195.217 7.07297 195.217 5.95618 195.217 5.08757C195.217 4.21896 195.466 3.59853 195.838 3.10218C196.459 2.23357 197.949 1.73722 200.557 1.73722V0.744523H184.289V1.73722C185.779 1.73722 186.773 1.73722 187.518 1.98539C188.139 2.23357 188.76 2.60583 189.008 3.10218C189.505 3.97079 189.629 5.83209 189.629 8.18975V32.1386C189.629 33.3794 189.629 34.3721 189.629 35.2407C189.629 35.9853 189.505 36.6057 189.008 37.2261C188.511 38.0947 186.897 38.7152 184.289 38.5911V39.7079H200.557V38.5911C199.191 38.5911 198.198 38.5911 197.453 38.2188C196.707 37.9707 196.087 37.5984 195.714 37.2261C195.217 36.3575 194.969 34.6203 195.093 32.1386V8.31384H195.217ZM249.734 26.6787L251.845 31.5181C252.094 32.1386 252.342 32.8831 252.59 33.7517C252.963 34.6203 253.087 35.3648 253.211 35.9853C253.211 37.8466 251.721 38.7152 249.113 38.5911V39.7079H264.264V38.5911C262.277 38.467 260.786 37.5984 259.793 36.3575C259.296 35.7371 258.924 34.9926 258.551 34.124C258.179 33.2553 257.806 32.5108 257.309 31.6422L244.518 0H243.401L229.865 32.6349C229.492 33.6276 228.995 34.4962 228.623 35.2407C228.25 35.8612 227.878 36.4816 227.381 36.978C226.512 37.8466 225.27 38.3429 223.78 38.467V39.5838H235.701V38.467C234.584 38.467 233.59 38.2188 232.721 37.8466C231.727 37.5984 231.231 36.978 231.231 35.8612C231.231 34.7444 231.355 34.4962 231.727 33.7517C231.976 33.0072 232.224 32.3867 232.472 31.8904L234.708 26.4306H249.362L249.734 26.6787ZM248.989 24.5692H235.95L242.531 8.93427L248.989 24.5692ZM318.905 0H317.911C317.911 0.620436 317.539 1.11678 317.166 1.73722C316.793 2.35765 316.297 2.60583 315.676 2.60583C315.055 2.60583 314.434 2.48174 313.937 1.98539C313.316 1.61313 312.695 1.36496 312.074 1.11678C311.454 0.868609 310.708 0.620435 310.088 0.496348C308.846 0.248174 307.355 0.124088 305.865 0.124088C300.029 0.124088 295.31 2.23357 291.832 6.20436C288.231 10.1751 286.493 15.1386 286.368 20.9707C286.368 26.5546 288.107 31.1459 291.584 34.7444C294.937 38.467 299.284 40.3283 304.872 40.4524C312.074 40.4524 317.414 37.102 320.643 30.5254L319.774 29.905C318.035 32.3867 316.421 34.3721 314.558 35.7371C312.571 37.2261 310.087 37.9707 307.231 37.9707C304.375 37.9707 304.002 37.7225 302.264 37.102C301.519 36.7298 300.65 36.3575 299.904 35.9853C299.159 35.4889 298.414 34.9926 297.669 34.248C296.303 32.8831 295.185 31.1459 294.316 28.9123C293.323 26.8028 292.95 24.0729 292.95 20.9707C293.198 8.31384 297.669 1.98539 306.238 2.10948C309.715 2.10948 312.571 3.10218 314.682 5.08757C316.669 7.07297 318.159 9.67879 318.905 13.1532H319.898L318.905 0Z" clip-rule="evenodd" fill-rule="evenodd"></path>
<path fill="#1F1F1F" d="M31.6671 66.5107V58.3213H33.4054V70.7295L25.0851 61.7949V69.9853H23.3468V57.5761L31.6671 66.5107ZM300.65 66.5107V58.3213H302.388V70.7295L294.067 61.7949V69.9853H292.329V57.5761L300.65 66.5107ZM114.249 65.5176C114.249 66.5103 114.373 67.2556 114.745 67.7519C115.242 68.3723 115.863 68.7441 116.733 68.7441C117.602 68.7441 118.347 68.3723 118.72 67.7519C119.092 67.2556 119.216 66.5103 119.216 65.5176V58.4453H120.955V66.0146C120.955 67.2553 120.582 68.2477 119.837 69.1162C118.968 69.9848 117.974 70.4814 116.733 70.4814C115.491 70.4814 114.497 69.9848 113.628 69.1162C112.883 68.3717 112.51 67.2553 112.51 66.0146V58.4453H114.249V65.5176ZM239.427 58.3213C241.041 58.3213 242.408 58.9418 243.65 60.0586C244.767 61.2994 245.388 62.6642 245.388 64.4013C245.388 66.1384 244.767 67.5033 243.65 68.7441C242.408 69.8609 241.041 70.4814 239.303 70.4814C237.564 70.4814 236.447 69.9849 235.329 68.8681C234.087 67.7514 233.342 66.1385 233.342 64.2773H233.466C233.466 62.6642 234.088 61.1753 235.205 60.0586C236.447 58.8178 237.813 58.3213 239.427 58.3213ZM98.7267 58.0732C100.341 58.0733 101.459 58.5689 102.7 59.5615C104.066 60.8024 104.812 62.2919 104.812 64.2773C104.812 66.2625 104.315 67.1313 103.197 68.372L105.06 70.2334V70.3574H102.824L101.955 69.3642C100.962 69.9846 99.9684 70.3574 98.7267 70.3574C97.4848 70.3574 95.8699 69.8609 94.628 68.7441C93.3864 67.6274 92.6417 66.1384 92.6417 64.2773C92.6417 62.416 93.2622 61.0504 94.504 59.8095C95.7458 58.6928 97.1123 58.0732 98.7267 58.0732ZM211.734 58.3213C213.516 58.3213 213.708 58.5468 214.59 59.1094V61.1748C213.597 60.3063 212.603 59.9345 211.485 59.9345C210.368 59.9346 209.25 60.3062 208.505 61.1748C207.636 62.0434 207.264 63.0365 207.264 64.2773C207.264 65.5179 207.636 66.5104 208.505 67.3789C209.374 68.2474 210.368 68.62 211.485 68.6201C212.603 68.6201 212.603 68.6201 213.1 68.372C213.348 68.372 213.597 68.1241 213.845 68C214.093 67.8759 214.341 67.627 214.714 67.3789V69.4892C213.721 70.1094 212.727 70.3574 211.609 70.3574C209.995 70.3573 208.505 69.7368 207.388 68.6201C206.27 67.5033 205.65 66.0144 205.65 64.4013C205.65 62.7884 206.145 61.5473 207.139 60.4306C208.381 58.9416 209.872 58.3213 211.734 58.3213ZM316.173 58.3213C317.787 58.3213 317.911 58.5691 318.656 58.9414C319.401 59.3136 320.147 59.9341 320.892 60.8027L319.65 62.0439C318.656 60.8032 317.539 60.1827 316.173 60.1826C314.807 60.1826 313.938 60.5545 313.068 61.4228C312.199 62.2914 311.826 63.2845 311.826 64.5254C311.826 65.7662 312.323 66.8833 313.192 67.7519C314.062 68.4962 314.931 68.8681 315.924 68.8681C316.917 68.8681 317.538 68.6202 318.283 68C318.904 67.3796 319.401 66.759 319.401 65.8906H316.545V64.2773L316.669 64.0293H321.389V64.4013C321.389 65.2699 321.388 66.0143 321.14 66.7588C320.891 67.3792 320.643 67.9997 320.147 68.4961C319.029 69.7369 317.662 70.3574 316.048 70.3574C314.434 70.3573 313.068 69.7368 311.95 68.6201C310.833 67.3793 310.212 66.0144 310.212 64.4013C310.212 62.7883 310.833 61.2994 311.95 60.0586C313.068 58.8177 314.559 58.3213 316.173 58.3213ZM58.9874 58.1972C59.9808 58.1974 61.3469 58.8178 62.0919 60.1826H62.2159L60.8497 61.0508C60.6014 60.5545 60.3529 60.3067 60.1046 60.1826C59.8563 60.0585 59.4839 59.9346 59.1114 59.9345C58.7389 59.9345 58.2418 60.0584 57.8692 60.3066C57.4969 60.5547 57.3732 60.9267 57.3731 61.2988C57.3731 61.6711 57.7451 62.2918 58.6143 62.664L59.7325 63.1601C60.7258 63.5324 61.3463 64.0291 61.7188 64.5254C62.0914 65.0217 62.3399 65.7662 62.3399 66.5107C62.3399 67.2551 61.9676 68.4956 61.2227 69.1162C60.4776 69.8607 59.6078 70.2334 58.6143 70.2334C57.6209 70.2334 56.7518 69.9846 56.131 69.3642C55.5101 68.7438 55.1371 67.8754 54.8888 66.8828L56.628 66.5107C56.628 67.2552 56.8759 67.6278 57.0001 67.876C57.3726 68.3721 57.8694 68.6201 58.6143 68.6201C59.3594 68.6201 59.608 68.4962 59.9806 68.124C60.3531 67.7517 60.4776 67.2551 60.4776 66.7588V66.1386C60.4776 65.8905 60.3528 65.7666 60.2286 65.6426C60.1044 65.5185 59.9808 65.3936 59.7325 65.1455C59.4842 65.0214 59.2357 64.8975 58.9874 64.7734L57.8692 64.2773C56.2549 63.6569 55.5099 62.6637 55.5099 61.2988C55.5099 59.9342 55.8822 59.6857 56.503 59.0654C57.1239 58.445 57.9939 58.1972 58.9874 58.1972ZM5.83701 60.0586H1.8624V62.9121H5.71298V64.5254H1.8624V70.1094H0.124115V58.4453H5.83701V60.0586ZM15.0265 70.1094H13.2882V58.4453H15.0265V70.1094ZM47.9356 60.0586H43.3409V62.9121H47.8106V64.5254H43.3409V68.4961H47.9356V70.1094H41.6017V58.4453H47.9356V60.0586ZM76.1251 60.0586H73.5177V70.1094H71.7784V60.0586H69.171V58.4453H76.1251V60.0586ZM138.589 70.1094H136.727L135.484 67.2549H130.518L129.275 70.1094H127.413L133.125 57.7002L138.589 70.1094ZM147.282 68.4961H150.636V70.1094H145.544V58.4453H147.282V68.4961ZM159.452 70.1094H157.714V58.4453H159.452V70.1094ZM173.485 60.0586H170.877V70.1094H169.139V60.0586H166.531V58.4453H173.485V60.0586ZM184.537 63.0361L187.145 58.3213H189.132L185.406 65.0215V70.1094H183.668V65.0215L179.942 58.3213H181.93L184.537 63.0361ZM224.027 68.4961H227.381V70.1094H222.289V58.4453H224.027V68.4961ZM258.551 60.0586H255.943V70.1094H254.204V60.0586H251.597V58.4453H258.551V60.0586ZM267.368 63.0361H272.336V58.4453H274.074V70.1094H272.336V64.6494H267.368V70.1094H265.63V58.4453H267.368V63.0361ZM284.009 70.1094H282.27V58.4453H284.009V70.1094ZM98.7267 60.0586C97.4849 60.0586 96.4913 60.4304 95.7462 61.2988C95.0011 62.1674 94.504 63.1604 94.504 64.5254C94.504 65.8903 94.8769 66.8834 95.7462 67.6279C96.6154 68.4963 97.6091 68.8681 98.7267 68.8681C99.8439 68.8681 100.092 68.7441 100.713 68.372L97.9815 65.7666H100.217L100.341 65.5176L101.955 67.2549C102.7 66.5104 103.073 65.518 103.073 64.4013C103.073 63.2846 102.7 62.0433 101.831 61.2988C100.962 60.4303 99.9684 60.0586 98.7267 60.0586ZM239.551 60.0586C238.434 60.0587 237.316 60.4306 236.571 61.2988C235.702 62.1674 235.329 63.1605 235.329 64.4013L235.205 64.2773C235.205 65.5181 235.577 66.6353 236.446 67.5039C237.316 68.3724 238.309 68.744 239.427 68.7441C240.544 68.7441 241.662 68.3722 242.531 67.5039C243.401 66.6353 243.773 65.6422 243.774 64.4013C243.774 63.1605 243.401 62.1674 242.531 61.2988C241.662 60.4304 240.668 60.0586 239.551 60.0586ZM131.263 65.6426H134.739L133.001 61.6709L131.263 65.6426ZM214.714 59.1894C214.671 59.1625 214.63 59.1349 214.59 59.1094V59.0654L214.714 59.1894Z"></path>
</svg>
